<svg width="18" height="18" viewBox="0 0 18 18" fill="none" xmlns="http://www.w3.org/2000/svg">
<path d="M16.9925 15.9533H11.2982C10.7426 15.9533 10.2908 16.4123 10.2908 16.9766C10.2908 17.5421 10.7426 18 11.2982 18H16.9925C17.548 18 17.9999 17.5421 17.9999 16.9766C17.9999 16.4123 17.548 15.9533 16.9925 15.9533Z" fill="#42A6A6"/>
<path d="M7.30902 3.90388L12.7049 8.26397C12.835 8.36824 12.8573 8.55959 12.7557 8.69288L6.35874 17.0282C5.95662 17.5431 5.36402 17.8345 4.72908 17.8452L1.23696 17.8882C1.05071 17.8904 0.887748 17.7614 0.845419 17.5765L0.0517547 14.1258C-0.0858138 13.4916 0.0517547 12.8358 0.453878 12.3306L6.88256 3.95548C6.98627 3.82111 7.1778 3.79746 7.30902 3.90388Z" fill="#42A6A6"/>
<path d="M15.1205 5.66544L14.0803 6.96401C13.9755 7.09623 13.7872 7.11773 13.657 7.01238C12.3924 5.98901 9.1543 3.36285 8.25587 2.63509C8.12465 2.52759 8.10666 2.33625 8.21248 2.20295L9.21567 0.957057C10.1257 -0.214663 11.7131 -0.322161 12.9935 0.699064L14.4644 1.87078C15.0676 2.34377 15.4698 2.96726 15.6073 3.62299C15.7661 4.3443 15.5967 5.0527 15.1205 5.66544Z" fill="#42A6A6"/>
</svg>
