<svg width="20" height="18" viewBox="0 0 20 18" fill="none" xmlns="http://www.w3.org/2000/svg">
<path opacity="0.4" d="M20 12.9402C20 15.7302 17.76 17.9902 14.97 18.0002H14.96H5.05C2.27 18.0002 0 15.7502 0 12.9602V12.9502C0 12.9502 0.006 8.5242 0.014 6.2982C0.015 5.8802 0.495 5.6462 0.822 5.9062C3.198 7.7912 7.447 11.2282 7.5 11.2732C8.21 11.8422 9.11 12.1632 10.03 12.1632C10.95 12.1632 11.85 11.8422 12.56 11.2622C12.613 11.2272 16.767 7.8932 19.179 5.9772C19.507 5.7162 19.989 5.9502 19.99 6.3672C20 8.5762 20 12.9402 20 12.9402Z" fill="#42A6A6" fill-opacity="0.5"/>
<path d="M19.4761 2.6736C18.6101 1.0416 16.9061 -0.000400543 15.0301 -0.000400543H5.05013C3.17413 -0.000400543 1.47013 1.0416 0.604128 2.6736C0.410128 3.0386 0.502128 3.4936 0.825128 3.7516L8.25013 9.6906C8.77013 10.1106 9.40013 10.3196 10.0301 10.3196C10.0341 10.3196 10.0371 10.3196 10.0401 10.3196C10.0431 10.3196 10.0471 10.3196 10.0501 10.3196C10.6801 10.3196 11.3101 10.1106 11.8301 9.6906L19.2551 3.7516C19.5781 3.4936 19.6701 3.0386 19.4761 2.6736Z" fill="#42A6A6" fill-opacity="0.5"/>
</svg>
